HIERARCHY
ROOT Hips
{
	OFFSET	0.00	0.00	0.00
	CHANNELS 6 Xposition Yposition Zposition Zrotation Xrotation Yrotation
	JOINT LeftUpLeg
	{
		OFFSET	 0.126116	-0.065224	 0.014019
		CHANNELS 3 Zrotation Xrotation Yrotation
		JOINT LeftLeg
		{
			OFFSET	 0.000000	 0.569914	 0.000000
			CHANNELS 3 Zrotation Xrotation Yrotation
			JOINT LeftFoot
			{
				OFFSET	 0.000000	 0.544423	 0.000000
				CHANNELS 3 Zrotation Xrotation Yrotation
				JOINT LeftToeBase
				{
					OFFSET	 0.000000	 0.207117	 0.000000
					CHANNELS 3 Zrotation Xrotation Yrotation
					End Site
					{
						OFFSET	 0.000000	 0.207117	 0.000000
					}
				}
			}
		}
	}
	JOINT RightUpLeg
	{
		OFFSET	-0.124023	-0.065224	 0.008373
		CHANNELS 3 Zrotation Xrotation Yrotation
		JOINT RightLeg
		{
			OFFSET	 0.000000	 0.570047	 0.000000
			CHANNELS 3 Zrotation Xrotation Yrotation
			JOINT RightFoot
			{
				OFFSET	 0.000000	 0.544354	 0.000000
				CHANNELS 3 Zrotation Xrotation Yrotation
				JOINT RightToeBase
				{
					OFFSET	 0.000000	 0.207540	 0.000000
					CHANNELS 3 Zrotation Xrotation Yrotation
					End Site
					{
						OFFSET	 0.000000	 0.207540	 0.000000
					}
				}
			}
		}
	}
	JOINT Spine
	{
		OFFSET	 0.000184	 0.117403	 0.007763
		CHANNELS 3 Zrotation Xrotation Yrotation
		JOINT Spine1
		{
			OFFSET	 0.000000	 0.137269	 0.000000
			CHANNELS 3 Zrotation Xrotation Yrotation
			JOINT Spine2
			{
				OFFSET	 0.000000	 0.156879	 0.000000
				CHANNELS 3 Zrotation Xrotation Yrotation
				JOINT LeftShoulder
				{
					OFFSET	 0.080501	 0.160143	 0.002496
					CHANNELS 3 Zrotation Xrotation Yrotation
					JOINT LeftArm
					{
						OFFSET	 0.000000	 0.164363	 0.000000
						CHANNELS 3 Zrotation Xrotation Yrotation
						JOINT LeftForeArm
						{
							OFFSET	 0.000000	 0.364576	 0.000000
							CHANNELS 3 Zrotation Xrotation Yrotation
							JOINT LeftHand
							{
								OFFSET	 0.000000	 0.360812	 0.000000
								CHANNELS 3 Zrotation Xrotation Yrotation
								JOINT LeftHandIndex1
								{
									OFFSET	 0.000000	 0.086006	 0.000000
									CHANNELS 3 Zrotation Xrotation Yrotation
									JOINT LeftHandIndex2
									{
										OFFSET	 0.000000	 0.047237	 0.000000
										CHANNELS 3 Zrotation Xrotation Yrotation
										JOINT LeftHandIndex3
										{
											OFFSET	-0.004284	 0.038165	 0.000551
											CHANNELS 3 Zrotation Xrotation Yrotation
											End Site
											{
												OFFSET	-0.004284	 0.038165	 0.000551
											}
										}
									}
								}
							}
						}
					}
				}
				JOINT Neck
				{
					OFFSET	 0.000000	 0.176489	 0.000000
					CHANNELS 3 Zrotation Xrotation Yrotation
					JOINT Head
					{
						OFFSET	 0.000000	 0.077941	 0.001747
						CHANNELS 3 Zrotation Xrotation Yrotation
						End Site
						{
							OFFSET	 0.000000	 0.077941	 0.001747
						}
					}
				}
				JOINT RightShoulder
				{
					OFFSET	-0.080363	 0.159706	-0.000306
					CHANNELS 3 Zrotation Xrotation Yrotation
					JOINT RightArm
					{
						OFFSET	 0.000000	 0.164196	 0.000000
						CHANNELS 3 Zrotation Xrotation Yrotation
						JOINT RightForeArm
						{
							OFFSET	 0.000000	 0.365611	 0.000000
							CHANNELS 3 Zrotation Xrotation Yrotation
							JOINT RightHand
							{
								OFFSET	 0.000000	 0.360648	 0.000000
								CHANNELS 3 Zrotation Xrotation Yrotation
								JOINT RightHandIndex1
								{
									OFFSET	 0.000000	 0.069977	 0.000000
									CHANNELS 3 Zrotation Xrotation Yrotation
									JOINT RightHandIndex2
									{
										OFFSET	 0.000000	 0.052305	 0.000000
										CHANNELS 3 Zrotation Xrotation Yrotation
										JOINT RightHandIndex3
										{
											OFFSET	 0.009002	 0.042196	 0.000782
											CHANNELS 3 Zrotation Xrotation Yrotation
											End Site
											{
												OFFSET	 0.009002	 0.042196	 0.000782
											}
										}
									}
								}
							}
						}
					}
				}
			}
		}
	}
}
MOTION
Frames:    7
Frame Time: 0.03333334
-0.007585	 1.281824	-0.089162	 0.887530	 1.942669	 179.925300	 179.607600	 4.366836	-3.299125	 3.756083	-18.356820	 6.076350	 4.092822	 70.214060	-2.378076	 1.331492	 28.938720	-2.729976	-179.482800	 0.359926	 8.701460	-4.644682	-14.957080	-5.041845	 4.898523	 70.846630	-5.255872	-1.322652	 28.813480	 2.075591	-0.961567	 2.960260	-0.711652	-1.301045	 2.035729	-0.791137	-1.129775	-1.824779	-0.102319	-113.439100	 5.246055	 92.937730	 7.569805	 50.079440	 36.510490	 30.083830	-1.485808	 0.315481	-28.033340	-47.332920	-23.370240	-6.580301	 5.266122	 0.000000	 0.000000	 0.000000	 0.000000	 0.000000	 0.000000	 0.000000	 4.469896	-0.491257	-0.224450	 3.030193	 2.236372	 1.732349	 114.194500	-4.287670	-88.515060	-56.223960	-0.493728	 58.704520	-61.847540	-1.986750	-1.131683	-95.119880	-78.930560	-77.656110	-0.359096	 10.564130	 0.744388	 11.977550	 9.299312	-2.092192	-8.358960	 3.141173	 0.104892
-0.006104	 1.282600	-0.086654	 0.719126	 1.892503	-179.351400	 179.581300	 4.636306	-2.639811	 3.725716	-18.218500	 6.416865	 4.814795	 69.888600	-3.269083	 1.331492	 28.938720	-2.729976	-179.603800	 0.642660	 9.386479	-4.692275	-15.103050	-4.451550	 6.501412	 70.766660	-7.040823	-1.320764	 28.786380	 2.125864	-0.976613	 2.912036	-1.105205	-1.030993	 2.118808	-1.179366	-1.118318	-1.951323	 0.144509	-113.435400	 5.223622	 92.876270	 6.096598	 48.628260	 38.120350	 30.110620	-1.487020	 0.316149	-30.442100	-45.847770	-25.737950	-6.580301	 5.266122	 0.000000	 0.000000	 0.000000	 0.000000	 0.000000	 0.000000	 0.000000	 4.389359	-0.508399	 0.011880	 2.152245	 2.226861	 2.264845	 114.224500	-4.483081	-88.366230	-57.943380	 3.225317	 58.159680	-59.759850	-1.946723	-1.060012	 164.181500	-75.839320	 179.303100	-0.359172	 10.566230	 0.744404	 11.977570	 9.301381	-2.092633	-8.358981	 3.142226	 0.104812
-0.003102	 1.283357	-0.083372	 0.589312	 1.918087	 179.390800	 179.751900	 4.341710	-3.746288	 3.617402	-17.723100	 4.970974	 0.830244	 69.594130	 0.905807	 1.331492	 28.938720	-2.729976	-179.440400	 1.105344	 8.081841	-4.834210	-15.537090	-5.723568	 3.030335	 70.862300	-3.315842	-1.316223	 28.722590	 2.235659	-0.978946	 3.040768	-1.202513	-0.842305	 2.039097	-1.171671	-1.061527	-1.682491	 0.559873	-113.435200	 5.304708	 92.907960	 2.112050	 47.455860	 40.853590	 30.470750	-1.503177	 0.325541	-31.140660	-41.104280	-24.710840	-6.580301	 5.266122	 0.000000	 0.000000	 0.000000	 0.000000	 0.000000	 0.000000	 0.000000	 4.640030	-0.507661	 0.128608	 1.861381	 2.339568	 2.663329	 114.250400	-4.650357	-88.238690	-59.635990	 3.889212	 55.151310	-67.709010	-2.084875	-1.340084	-46.167770	-76.370710	-31.278130	-0.359342	 10.570860	 0.744446	 11.977630	 9.305946	-2.093613	-8.359024	 3.144542	 0.104642
 0.001149	 1.284123	-0.078874	 0.438713	 1.950584	 177.976400	 179.961900	 3.994198	-4.986172	 3.487010	-17.122960	 3.251922	-3.748442	 69.105060	 5.702028	 1.331492	 28.938720	-2.729976	-179.187300	 1.639686	 6.618357	-4.997110	-16.032940	-7.131516	-0.910587	 70.872810	 0.847444	-1.310960	 28.650960	 2.358881	-0.985161	 3.183458	-1.327901	-0.699083	 2.148886	-1.181234	-0.963251	-1.475737	 1.025539	-113.435000	 5.395756	 92.943570	-1.922921	 46.903970	 43.723210	 29.577790	-1.463158	 0.302472	-31.327380	-35.889470	-23.836120	-6.580301	 5.266122	 0.000000	 0.000000	 0.000000	 0.000000	 0.000000	 0.000000	 0.000000	 4.921520	-0.506224	 0.259684	 1.533533	 2.463610	 3.111692	 114.279900	-4.838109	-88.095370	-62.385110	 6.680912	 50.829060	-82.363040	-2.233141	-1.895130	-33.944120	-46.987160	-24.211280	-0.359534	 10.576060	 0.744492	 11.977690	 9.311073	-2.094714	-8.359071	 3.147142	 0.104450
 0.005192	 1.284527	-0.075478	 0.330293	 2.076124	 178.054600	-179.932000	 3.926383	-4.871319	 3.448606	-16.945500	 3.036677	-4.483670	 68.780330	 6.300539	 1.331492	 28.938720	-2.729976	-179.073700	 1.807407	 6.644566	-5.068368	-16.249000	-7.485023	-1.945516	 70.860380	 1.888163	-1.305841	 28.583600	 2.480774	-0.988600	 3.319198	-1.119885	-0.718834	 2.406362	-1.034875	-0.994514	-1.384089	 0.927069	-113.436200	 5.449645	 92.982370	-3.161134	 47.594910	 43.872910	 29.032770	-1.438599	 0.288680	-28.262390	-33.602530	-22.424590	-6.580301	 5.266122	 0.000000	 0.000000	 0.000000	 0.000000	 0.000000	 0.000000	 0.000000	 5.095658	-0.449105	 0.125479	 2.419583	 2.249729	 2.792296	 114.281700	-4.844268	-88.080290	-58.229370	 11.541280	 36.350860	-97.820340	-2.232098	-2.500990	-30.260400	-34.785000	-23.465520	-0.414359	 12.143560	 0.755303	 12.002360	 10.844940	-2.425567	-8.375278	 3.993183	 0.050342
 0.010296	 1.284747	-0.071970	 0.207256	 2.250726	 178.689600	-179.852800	 3.975220	-4.246793	 3.443112	-16.920120	 3.375504	-3.920645	 68.507610	 5.431675	 1.331492	 28.938720	-2.729976	-179.005400	 1.914422	 7.221135	-5.134120	-16.447940	-7.497555	-2.041913	 70.868470	 1.907897	-1.300127	 28.510870	 2.614697	-1.000301	 3.471049	-0.600035	-0.941392	 2.782266	-0.646851	-1.017301	-1.330707	 0.608835	-113.438100	 5.495473	 93.026340	-3.327829	 49.067210	 42.950830	 29.031630	-1.438516	 0.288657	-24.178070	-32.083860	-20.197000	-6.580301	 5.266122	 0.000000	 0.000000	 0.000000	 0.000000	 0.000000	 0.000000	 0.000000	 5.248727	-0.366394	-0.119929	 3.836058	 1.879814	 2.167318	 114.273300	-4.784566	-88.110660	-55.386300	 15.989250	 12.706850	-109.625600	-2.122295	-2.951128	-30.546260	-28.142610	-29.822390	-0.496085	 14.445800	 0.774112	 12.055340	 13.097480	-2.916187	-8.397665	 5.235596	-0.028788
 0.014963	 1.284871	-0.068161	 0.035088	 2.428141	 179.441500	-179.860400	 4.148788	-3.485851	 3.445341	-16.930370	 3.854956	-3.002938	 68.184270	 4.199646	 1.331492	 28.938720	-2.729976	-178.986300	 2.122644	 7.963670	-5.258761	-16.823890	-7.469660	-1.967320	 70.970170	 1.762995	-1.294357	 28.440120	 2.752635	-1.009777	 3.647044	-0.087412	-1.153289	 3.180546	-0.273677	-1.078051	-1.251774	 0.236348	-113.440000	 5.499930	 93.054170	-2.469924	 50.458020	 41.338150	 29.382880	-1.454370	 0.297502	-20.417380	-29.519920	-17.781760	-6.580301	 5.266122	 0.000000	 0.000000	 0.000000	 0.000000	 0.000000	 0.000000	 0.000000	 5.317677	-0.281943	-0.375760	 5.125453	 1.460386	 1.509110	 114.262000	-4.704981	-88.154150	-52.843480	 20.778170	-10.147940	-110.218800	-2.114359	-2.973047	-29.614020	-20.671780	-32.071960	-0.596253	 17.203410	 0.801445	 12.145890	 15.794880	-3.513314	-8.421751	 6.690635	-0.121067
